<?xml version="1.0" encoding="utf-8"?>
<!-- Generator: Adobe Illustrator 19.2.1, SVG Export Plug-In . SVG Version: 6.00 Build 0)  -->
<svg version="1.1" xmlns="http://www.w3.org/2000/svg" xmlns:xlink="http://www.w3.org/1999/xlink" x="0px" y="0px"
	 viewBox="0 0 512 440.5" style="enable-background:new 0 0 512 440.5;" xml:space="preserve">
<style type="text/css">
	.Arched_x0020_Green{fill:url(#SVGID_1_);stroke:#FFFFFF;stroke-width:0.25;stroke-miterlimit:1;}
	.st0{fill:#6CBE45;}
	.st1{fill:none;stroke:#000000;stroke-width:10;}
	.st2{clip-path:url(#SVGID_3_);fill:none;stroke:#000000;stroke-width:10;}
	.st3{fill:none;stroke:#000000;stroke-width:10;stroke-linecap:round;}
</style>
<linearGradient id="SVGID_1_" gradientUnits="userSpaceOnUse" x1="-109.6343" y1="590.5576" x2="-108.9272" y2="589.8505">
	<stop  offset="0" style="stop-color:#20AC4B"/>
	<stop  offset="0.9831" style="stop-color:#19361A"/>
</linearGradient>
<g id="Layer_1">
	<g>
		<g id="HEART">
			<path d="M10.6,366.5v-69.9H0v-11.7h35.7v11.7h-11v26.7h40.6v-26.7H54.3v-11.7H90v11.7H79.3v69.9H90v11.7H54.3v-11.7h10.9v-31.6
				H24.7v31.6h11v11.7H0v-11.7H10.6z"/>
			<path d="M94.9,378.1v-16.5h16.5v16.5H94.9z"/>
			<path d="M128.4,366.5v-69.9h-12.1v-11.7h77.5V313h-11.5v-16.4h-39.8v27.8h34.7V336h-34.7v30.5h39.8v-17h11.5v28.6h-77.5v-11.7
				H128.4z"/>
			<path d="M198.7,378.1v-16.5h16.5v16.5H198.7z"/>
			<path d="M286.3,345.3h-33.6l-7.1,21.1h11.3v11.7h-36.8v-11.7h11.3l25.5-71.1h-11.3v-10.5h47.7v10.5h-11.7l26.1,71.1h10.4v11.7
				h-36.5v-11.7h11.6L286.3,345.3z M282.8,334.4l-12.4-39h-1.3l-12.9,39H282.8z"/>
			<path d="M323.1,378.1v-16.5h16.5v16.5H323.1z"/>
			<path d="M357.3,366.5v-69.9h-12.8v-11.7h37.9c7.9,0,14.2,0.6,18.8,1.8c4.7,1.2,8.5,3.8,11.5,7.8c3,4,4.6,8.9,4.6,14.8
				c0,12.3-6.4,20.1-19.2,23.3l16.5,33.9H426v11.7h-20.2l-21.2-43.6h-13.1v31.9h11.9v11.7h-38.8v-11.7H357.3z M371.4,322.9h11
				c5.3,0,9.2-0.3,11.8-1c2.5-0.7,4.6-2.1,6.2-4.2c1.6-2.1,2.4-5,2.4-8.6c0-3-0.8-5.6-2.4-7.7c-1.6-2.1-3.6-3.4-6-4
				c-2.4-0.6-6-0.8-11-0.8h-11.9V322.9z"/>
			<path d="M430.9,378.1v-16.5h16.5v16.5H430.9z"/>
			<path d="M464.3,366.5v-69.9H445v23.8h-11.5v-35.5h75.6v35.5h-11.5v-23.8h-19.2v69.9h12.1v11.7h-38.2v-11.7H464.3z"/>
			<path d="M495.5,378.1v-16.5H512v16.5H495.5z"/>
		</g>
		<g id="mark">
			<path id="fill" class="st0" d="M242.9,95.8c0,0-95.6-91.2-142.6,33.6c0,0-9.1,41.6,30.9,62.9c113.5,60.5,167.7,73.1,167.7,73.1
				s21.6-12.6,96.3-176.7c7.8-17.2,7.4-29.3-10.4-59.4C364.9-6.5,269.1-21.5,242.9,95.8z"/>
			<path class="st1" d="M285.3,226.1c0,0,35.8,4.4,26.6,23.3c-9.2,19-27.1,17.5-43,9.9"/>
			<g>
				<defs>
					<polygon id="SVGID_2_" points="272.5,252.7 267.7,267.2 94.1,197.2 86.8,74.7 159.7,39.5 226.2,50.1 313.4,-19.9 365.2,-12.1 
						407.6,32.2 404.7,144.1 338.6,235.8 319.4,225.4 					"/>
				</defs>
				<clipPath id="SVGID_3_">
					<use xlink:href="#SVGID_2_"  style="overflow:visible;"/>
				</clipPath>
				<path class="st2" d="M243.5,95.8c0,0-97-91-142.8,30.8c0,0-8.9,45.6,30.5,65.7c39.3,20.1,174.3,84.6,174.3,84.6l88.4-182
					c0,0,10.4-36.6-11.8-64.1C362.7-4.1,269.1-18.7,243.5,95.8z"/>
			</g>
			<path class="st3" d="M265.9,115.3c0,0,54.4-3.6,57.3,64.4"/>
			<path class="st3" d="M261.8,139.9c0,0,38.2,2.2,32.8,39.8"/>
			<path d="M222.5,111.2c0,0,14.2,10.5,11.5,38c-0.9,2.8-2.5,2.3-2.5,2.3s-6.9,3.1-7.7,4.3c-0.8,1.2-1.3,3.6-0.7,5.2
				c0.6,1.6,5.2,11.3,13.8,21.6c8.6,10.3,18.6,22.7,23.6,24.1c5,1.4,3.3,0.2,4.5-1.7c1.2-2,2.8-8.6,10.5-7.5
				c7.8,1,22.2,6.3,28.6,17.2c1.7,4.5-2.9,11.6-2.9,11.6s-4.6,9.4-6.8,12c-2.2,2.6-3.2,5.1-15.4,5.2c-12.2,0.1-39.2-14.7-52.3-30.9
				c-13.1-16.2-31.4-36.3-34.7-65.6c-2.4-20,7.8-29.8,9.8-31.1C203.7,114.3,222.5,111.2,222.5,111.2z"/>
			<path class="st3" d="M330.1,226.1c0,0-9.6,14.4,2.9,26.5"/>
		</g>
		<g id="phone_number">
			<path d="M9.7,412.8v-11.4v-2.6c-0.2-2.4-0.8-3.5-2-3.5c-0.4,0-1,0.1-1.8,0.3c-0.8,0.2-1.4,0.3-1.8,0.3c-1.6,0-2.4-0.9-2.4-2.6
				c0-0.8,0.3-1.4,0.8-1.9c0.5-0.5,1.2-0.8,2.1-0.8c0.7,0,1.6,0.1,2.6,0.3c1.1,0.2,2.1,0.3,2.9,0.3c0.8,0,1.4-0.1,1.9-0.2
				c1-0.4,1.7-0.6,2.1-0.6c0.7,0,1.1,0.6,1.1,1.8v0.7l-0.2,2.8c-0.1,2.4-0.2,6.1-0.4,11.1v6.2l0.2,17.4c0.1,2.1,0.3,3.4,0.6,3.9
				c0.3,0.5,0.9,0.8,2,0.8c0.4,0,1.1,0,1.9-0.1c0.8-0.1,1.5-0.1,1.9-0.1c1.7,0,2.6,0.8,2.6,2.5c0,1.8-0.9,2.7-2.6,2.7
				c-0.9,0-2.3-0.1-4.3-0.4c-1.9-0.3-3.4-0.4-4.3-0.4c-1.6,0-3.3,0.1-5.1,0.4c-1.9,0.3-3.1,0.4-3.8,0.4c-1.8,0-2.6-0.9-2.6-2.6
				c0-1.7,0.8-2.6,2.3-2.6c0.4,0,1,0.1,1.7,0.2c0.7,0.1,1.3,0.2,1.7,0.2c1.7,0,2.5-1.3,2.6-4c0-0.5,0-1.7,0.1-3.5
				C9.6,424,9.7,419.1,9.7,412.8z"/>
			<path d="M28.3,418.3c0-1.8,0.9-2.6,2.6-2.6l2.1,0.1c1.4,0,2.4,0.1,3.1,0.1c0.5,0,1.2,0,2.2-0.1c1,0,1.7-0.1,2.2-0.1
				c1.8,0,2.6,0.9,2.6,2.6c0,1.7-0.9,2.6-2.6,2.6c-0.1,0-0.4,0-0.9-0.1c-0.4,0-0.8-0.1-1.1-0.1c-0.7,0-1.6-0.1-2.7-0.1
				c-1.2,0-2.1,0-2.8,0.1c-0.3,0-0.7,0-1.1,0.1c-0.4,0-0.7,0.1-0.9,0.1C29.2,420.9,28.3,420.1,28.3,418.3z"/>
			<path d="M49.1,415.9c1.3-1.5,3.2-2.5,5.7-3.2c-4.5-1.9-6.7-5.3-6.7-10.4c0-3.7,1.2-6.7,3.7-9.1c2.4-2.4,5.5-3.6,9.3-3.6
				c3.6,0,6.5,1.2,8.8,3.5c2.3,2.3,3.4,5.3,3.4,8.9c0,4.9-2.2,8.4-6.5,10.7c5.6,1.8,8.5,6,8.5,12.4c0,4.6-1.4,8.3-4.2,11.1
				c-2.8,2.9-6.4,4.3-10.8,4.3c-4.2,0-7.7-1.4-10.5-4.2c-2.8-2.8-4.2-6.2-4.2-10.4C45.4,422.1,46.6,418.7,49.1,415.9z M60.3,415.5
				c-2.7,0-4.9,0.9-6.7,2.8c-1.8,1.9-2.7,4.2-2.7,7.1c0,3,0.9,5.5,2.6,7.4c1.7,1.9,4,2.9,6.6,2.9c2.7,0,5-1,6.8-2.9
				c1.8-1.9,2.6-4.3,2.6-7.3c0-3-0.8-5.4-2.5-7.2C65.4,416.4,63.1,415.5,60.3,415.5z M60.7,394.5c-2.1,0-3.7,0.7-5.1,2.2
				c-1.3,1.4-2,3.3-2,5.4c0,2.1,0.7,3.9,2,5.4c1.3,1.4,3,2.2,5,2.2c2,0,3.6-0.7,5-2.2c1.3-1.5,2-3.2,2-5.3c0-2.1-0.7-3.9-2-5.4
				C64.3,395.3,62.7,394.5,60.7,394.5z"/>
			<path d="M87.2,392.6c0,0,0,0.3,0,0.7c0,0.4,0,0.8,0,1.3c1-1.7,1.9-2.8,2.6-3.3c0.8-0.5,1.9-0.8,3.4-0.8c1.1,0,2.8,0.6,5.1,1.7
				c2.3,1.2,4.2,1.7,5.5,1.7c0.4,0,1-0.1,1.8-0.3c-0.4-0.4-0.7-1-0.7-1.6c0-1.6,0.8-2.4,2.5-2.4c2.5,0,3.8,2.3,3.8,6.8
				c0,3.7-1,7.1-3.1,10.1c-0.9,1.4-2,2.8-3.2,4.3c-2.7,3.3-4.5,6.1-5.3,8.5c-0.9,2.7-1.3,6-1.3,9.8c0,0.2,0,0.6,0,1.1
				c0,0.5,0.1,0.9,0.1,1.2c0,1.5,0.1,2.8,0.1,3.7c0,3.6-1.1,5.4-3.2,5.4c-1.7,0-2.7-1.1-3.1-3.2c-0.1-0.6-0.1-2.3-0.1-5.1
				c0-5.9,1.1-11.2,3.3-15.9c1.3-2.8,3.6-6.1,6.8-9.8c1.7-2,2.9-3.5,3.5-4.7c0.6-1.2,1.2-2.7,1.5-4.6c-1.6,1.3-3.1,2-4.5,2
				c-0.6,0-1.3-0.1-2.1-0.4c-0.4-0.1-1.3-0.5-2.9-1.2c-2.1-0.9-3.8-1.3-5.2-1.3c-1.5,0-2.8,0.6-3.8,1.7c-1,1.2-1.5,2.6-1.5,4.2
				c0,0.7,0,1.5,0.1,2.4c0.1,1.3,0.2,2.3,0.2,2.9c0,2.5-0.9,3.7-2.6,3.7c-1.7,0-2.6-0.9-2.6-2.8c0-1,0.1-2.3,0.4-3.9
				c0.3-1.9,0.5-3.7,0.5-5.4c0-0.8-0.1-2-0.3-3.5c-0.2-1.6-0.3-2.7-0.3-3.5c0-1.7,0.8-2.5,2.3-2.5C86.5,389.6,87.2,390.6,87.2,392.6
				z"/>
			<path d="M122.8,392.6c0,0,0,0.3,0,0.7c0,0.4,0,0.8,0,1.3c1-1.7,1.9-2.8,2.6-3.3c0.8-0.5,1.9-0.8,3.4-0.8c1.1,0,2.8,0.6,5.1,1.7
				c2.3,1.2,4.2,1.7,5.5,1.7c0.4,0,1-0.1,1.8-0.3c-0.4-0.4-0.7-1-0.7-1.6c0-1.6,0.8-2.4,2.5-2.4c2.5,0,3.8,2.3,3.8,6.8
				c0,3.7-1,7.1-3.1,10.1c-0.9,1.4-2,2.8-3.2,4.3c-2.7,3.3-4.5,6.1-5.3,8.5c-0.9,2.7-1.3,6-1.3,9.8c0,0.2,0,0.6,0,1.1
				c0,0.5,0.1,0.9,0.1,1.2c0,1.5,0.1,2.8,0.1,3.7c0,3.6-1.1,5.4-3.2,5.4c-1.7,0-2.7-1.1-3.1-3.2c-0.1-0.6-0.1-2.3-0.1-5.1
				c0-5.9,1.1-11.2,3.3-15.9c1.3-2.8,3.6-6.1,6.8-9.8c1.7-2,2.9-3.5,3.5-4.7c0.6-1.2,1.2-2.7,1.5-4.6c-1.6,1.3-3.1,2-4.5,2
				c-0.6,0-1.3-0.1-2.1-0.4c-0.4-0.1-1.3-0.5-2.9-1.2c-2.1-0.9-3.8-1.3-5.2-1.3c-1.5,0-2.8,0.6-3.8,1.7c-1,1.2-1.5,2.6-1.5,4.2
				c0,0.7,0,1.5,0.1,2.4c0.1,1.3,0.2,2.3,0.2,2.9c0,2.5-0.9,3.7-2.6,3.7c-1.7,0-2.6-0.9-2.6-2.8c0-1,0.1-2.3,0.4-3.9
				c0.3-1.9,0.5-3.7,0.5-5.4c0-0.8-0.1-2-0.3-3.5c-0.2-1.6-0.3-2.7-0.3-3.5c0-1.7,0.8-2.5,2.3-2.5
				C122,389.6,122.8,390.6,122.8,392.6z"/>
			<path d="M148.6,418.3c0-1.8,0.9-2.6,2.6-2.6l2.1,0.1c1.4,0,2.4,0.1,3.1,0.1c0.5,0,1.2,0,2.2-0.1c1,0,1.7-0.1,2.2-0.1
				c1.8,0,2.6,0.9,2.6,2.6c0,1.7-0.9,2.6-2.6,2.6c-0.1,0-0.4,0-0.9-0.1c-0.4,0-0.8-0.1-1.1-0.1c-0.7,0-1.6-0.1-2.7-0.1
				c-1.2,0-2.1,0-2.8,0.1c-0.3,0-0.7,0-1.1,0.1c-0.4,0-0.7,0.1-0.9,0.1C149.5,420.9,148.6,420.1,148.6,418.3z"/>
			<path d="M184,426.9v-1.7h-15.2c-2.6,0-3.9-1-3.9-3.1c0-1.1,0.6-2.6,1.8-4.5l15.4-25.8c0.8-1.3,1.9-1.9,3.3-1.9
				c1.5,0,2.5,0.4,3,1.2c0.5,0.8,0.8,2.3,0.8,4.5v24.5h4.8c1.8,0,2.7,0.8,2.7,2.4c0,1.8-1.1,2.7-3.3,2.7h-4.3v1.7v4
				c0.1,2.7,0.9,4.1,2.4,4.1c0.3,0,0.7,0,1.3-0.1c0.6-0.1,1-0.1,1.3-0.1c1.6,0,2.4,0.8,2.4,2.5c0,0.7-0.3,1.4-0.8,1.9
				c-0.5,0.5-1.2,0.8-1.9,0.8c-0.7,0-1.9-0.1-3.4-0.4c-1.5-0.3-2.8-0.4-3.6-0.4c-1,0-2.4,0.1-4.2,0.4c-1.8,0.3-3.1,0.4-3.9,0.4
				c-1.7,0-2.6-0.9-2.6-2.6c0-1.7,0.8-2.5,2.4-2.5c0.2,0,0.7,0.1,1.3,0.2c0.6,0.1,1.1,0.2,1.5,0.2c1.4,0,2.2-1.1,2.5-3.3
				C183.9,431.4,184,429.8,184,426.9z M170.4,420.1H184v-22.9L170.4,420.1z"/>
			<path d="M197.8,418.3c0-1.8,0.9-2.6,2.6-2.6l2.1,0.1c1.4,0,2.4,0.1,3.1,0.1c0.5,0,1.2,0,2.2-0.1c1,0,1.7-0.1,2.2-0.1
				c1.8,0,2.6,0.9,2.6,2.6c0,1.7-0.9,2.6-2.6,2.6c-0.1,0-0.4,0-0.9-0.1c-0.4,0-0.8-0.1-1.1-0.1c-0.7,0-1.6-0.1-2.7-0.1
				c-1.2,0-2.1,0-2.8,0.1c-0.3,0-0.7,0-1.1,0.1c-0.4,0-0.7,0.1-0.9,0.1C198.7,420.9,197.8,420.1,197.8,418.3z"/>
			<path d="M246.4,403.2c0,6.1-2.5,9.9-7.6,11.4c2.2,0.8,3.6,1.8,4.2,2.8c0.6,1.1,1,3,1.2,6v3.4l0.1,3c0.1,3.4,0.9,5.1,2.3,5.1
				c0.2,0,0.7-0.1,1.3-0.3c0.6-0.2,0.9-0.3,1-0.3c1.6,0,2.4,0.9,2.4,2.6c0,1.9-1,2.8-3.1,2.8h-0.7l-1.8-0.2l-1.9-0.1
				c-1.8,0-3-0.9-3.7-2.5c-0.6-1.6-1-4.9-1.1-9.7v-3.5c-0.1-2.6-0.6-4.3-1.6-5.3c-1-0.9-3-1.4-5.9-1.4h-0.6l-3.7,0.1
				c-0.7,0-1.1,0.2-1.3,0.6c-0.2,0.3-0.3,1.2-0.3,2.4v1.8c0,5.6,0.1,9.2,0.4,10.6c0.2,1.4,0.8,2.2,1.8,2.2c0.1,0,0.5-0.1,1.3-0.3
				c0.2-0.2,0.6-0.3,1.1-0.3c1.6,0,2.4,0.8,2.4,2.5c0,0.8-0.3,1.6-0.8,2.1c-0.5,0.6-1.2,0.9-2,0.9c-0.7,0-1.8-0.1-3.4-0.4
				c-1.6-0.2-2.8-0.4-3.6-0.4c-0.8,0-1.9,0.1-3.4,0.4c-1.5,0.2-2.6,0.4-3.3,0.4c-0.8,0-1.4-0.3-1.9-0.9c-0.5-0.6-0.8-1.3-0.8-2.1
				c0-1.6,0.8-2.5,2.4-2.5c0.5,0,0.9,0.1,1.1,0.3c0.8,0.2,1.2,0.3,1.3,0.3c0.9,0,1.5-0.7,1.8-2.2c0.2-1.4,0.4-5,0.4-10.6v-14
				c0-5.7-0.1-9.3-0.4-10.7c-0.2-1.4-0.8-2.2-1.8-2.2c-0.2,0-0.6,0.1-1.2,0.3c-0.5,0.2-1,0.3-1.2,0.3c-1.6,0-2.4-0.8-2.4-2.5
				c0-1.9,0.9-2.9,2.8-2.9c0.8,0,2,0.1,3.6,0.4c1.6,0.3,2.8,0.4,3.6,0.4c1.3,0,3.2-0.1,5.7-0.3c2.5-0.2,4.5-0.3,5.7-0.3
				c3.7,0,6.6,1.1,8.6,3.3C245.4,396,246.4,399.1,246.4,403.2z M225.6,410.4c0,1.1,0.5,1.6,1.5,1.7l1.5,0.1c0.1,0,0.4,0.1,0.7,0.1
				c0.2,0,0.7,0,1.3-0.1c2.2-0.1,4-0.3,5.3-0.4c1.6-0.4,2.8-1.3,3.7-2.8c0.9-1.5,1.4-3.3,1.4-5.4c0-5.6-2.8-8.4-8.5-8.4
				c-2.6,0-4.3,0.3-5.4,0.8c-1,0.5-1.5,1.4-1.5,2.7V410.4z"/>
			<path d="M258,411.8v-11.4c0-3.3-0.7-5-2.1-5c-0.2,0-0.5,0-0.9,0c-0.4,0-0.7,0-0.9,0c-0.6,0-1.1-0.2-1.6-0.7
				c-0.4-0.5-0.6-1-0.6-1.7c0-1.9,0.9-2.8,2.7-2.8c0.7,0,1.5,0.1,2.6,0.4c1.5,0.3,2.7,0.5,3.7,0.5c0.8,0,1.9-0.1,3.3-0.4
				c1.4-0.3,2.5-0.4,3.1-0.4c0.8,0,1.4,0.3,2,0.9c0.5,0.6,0.8,1.3,0.8,2c0,0.7-0.2,1.3-0.7,1.8c-0.5,0.5-1,0.7-1.7,0.7
				c-0.3,0-0.7,0-1.2-0.1c-0.5-0.1-0.9-0.1-1.2-0.1c-1.2,0-1.9,1.9-2.1,5.6c0,0,0,2.4,0,7.3v10.6c0,5.2,0.3,8.9,0.8,11.1
				c0.4,1.7,1.3,3,2.8,4.1c1.5,1.1,3.1,1.6,5,1.6c1.9,0,3.5-0.5,4.9-1.6c1.4-1.1,2.4-2.5,2.9-4.3c0.5-2,0.8-5.6,0.8-10.9v-10.6
				c0-4.9,0-7.3,0-7.3c-0.2-3.7-1-5.6-2.1-5.6c-0.3,0-0.7,0-1.2,0.1c-0.5,0.1-0.9,0.1-1.2,0.1c-0.7,0-1.3-0.2-1.7-0.7
				c-0.5-0.5-0.7-1.1-0.7-1.8c0-0.8,0.3-1.5,0.8-2.1c0.6-0.5,1.2-0.8,2-0.8c0.7,0,1.7,0.1,3.1,0.4c1.4,0.3,2.4,0.4,3.1,0.4
				c0.7,0,1.8-0.1,3.2-0.4c1.4-0.3,2.5-0.4,3.2-0.4c1.7,0,2.6,0.9,2.6,2.8c0,1.6-0.8,2.4-2.3,2.4h-1.3c-1,0-1.6,0.4-1.9,1.3
				c-0.3,0.9-0.4,3.1-0.4,6.6v6.8c0,1.3,0,3.2,0,5.8c0,2.6,0,4.5,0,5.8c0,5.6-0.6,9.7-1.9,12.3c-1,2.1-2.7,3.7-4.9,4.8
				c-2.2,1.2-4.7,1.8-7.5,1.8c-2.5,0-4.9-0.5-6.9-1.6c-2.1-1-3.5-2.4-4.4-4.1c-1.3-2.5-1.9-6.9-1.9-13v-3.3
				C258,415.1,258,412.9,258,411.8z"/>
			<path d="M308.6,392.6l13.4,39.9v-24.3c0-4.9,0-7.3,0-7.3c-0.2-3.7-1-5.6-2.1-5.6c-0.3,0-0.7,0.1-1.2,0.2
				c-0.5,0.1-0.9,0.2-1.2,0.2c-0.7,0-1.3-0.2-1.7-0.7c-0.5-0.5-0.7-1.1-0.7-1.8c0-0.8,0.3-1.5,0.8-2c0.5-0.6,1.2-0.9,2-0.9
				c0.6,0,1.7,0.2,3.3,0.5c0.9,0.2,2,0.3,3.3,0.3c1.5,0,2.6-0.1,3.4-0.3c1.4-0.3,2.4-0.5,2.9-0.5c0.6,0,1.2,0.3,1.7,0.8
				c0.5,0.5,0.7,1.2,0.7,2c0,1.7-0.7,2.6-2.2,2.6c-0.2,0-0.5,0-1-0.1c-0.4-0.1-0.8-0.1-1-0.1c-1.1,0-1.7,1.1-1.9,3.4l-0.2,3.6v5.5
				v27c0,3.4-1.2,5.2-3.7,5.2c-2.2,0-3.8-1.5-4.8-4.6L305.4,397v25.1c0,5.6,0.1,9.2,0.4,10.6c0.2,1.4,0.8,2.2,1.8,2.2
				c0.1,0,0.6,0,1.2-0.1c0.3-0.1,0.7-0.1,1.2-0.1c1.6,0,2.4,0.8,2.4,2.5c0,0.8-0.3,1.5-0.8,2.1c-0.5,0.6-1.2,0.9-1.9,0.9
				c-0.2,0-1.2-0.3-3.1-0.8c-0.6-0.2-1.7-0.3-3.2-0.3c-1.2,0-2.5,0.1-3.8,0.4c-1.8,0.4-2.9,0.6-3.2,0.6c-0.8,0-1.4-0.3-1.9-0.9
				c-0.5-0.6-0.8-1.3-0.8-2.1c0-1.6,0.8-2.5,2.4-2.5c0.5,0,0.9,0,1.1,0.1c0.8,0.1,1.2,0.1,1.3,0.1c0.9,0,1.5-0.7,1.8-2.2
				c0.2-1.4,0.4-5,0.4-10.6v-14c0-5.7-0.1-9.2-0.4-10.7c-0.2-1.4-0.8-2.2-1.8-2.2c-0.2,0-0.6,0.1-1.2,0.2c-0.5,0.1-1,0.2-1.2,0.2
				c-1.6,0-2.4-0.8-2.4-2.5c0-0.8,0.3-1.5,0.8-2.1c0.5-0.5,1.2-0.8,1.9-0.8c0.5,0,1.5,0.1,2.8,0.4c1.1,0.2,2.2,0.4,3.5,0.4
				c0.2,0,1.2-0.1,3.1-0.4c0.4,0,0.8-0.1,1.1-0.1C307.5,390.6,308.2,391.2,308.6,392.6z"/>
			<path d="M333.4,418.3c0-1.8,0.9-2.6,2.6-2.6l2.1,0.1c1.4,0,2.4,0.1,3.1,0.1c0.5,0,1.2,0,2.2-0.1c1,0,1.7-0.1,2.2-0.1
				c1.8,0,2.6,0.9,2.6,2.6c0,1.7-0.9,2.6-2.6,2.6c-0.1,0-0.4,0-0.9-0.1c-0.4,0-0.8-0.1-1.1-0.1c-0.7,0-1.6-0.1-2.7-0.1
				c-1.2,0-2.1,0-2.8,0.1c-0.3,0-0.7,0-1.1,0.1c-0.4,0-0.7,0.1-0.9,0.1C334.3,420.9,333.4,420.1,333.4,418.3z"/>
			<path d="M356.1,424.7l8.5-31.1c0.4-1.5,0.8-2.4,1.1-2.8c0.5-0.8,1.4-1.3,2.5-1.3c1.4,0,2.3,0.3,2.8,1c0.5,0.7,1.1,2.5,1.8,5.5
				l8.4,33.6c0.6,2.1,1.1,3.5,1.5,4.2c0.4,0.7,0.9,1,1.6,1c0.2,0,0.6-0.1,1.3-0.2c0.1,0,0.3,0,0.5-0.1c0.2,0,0.3,0,0.4,0
				c1.6,0,2.3,0.8,2.3,2.5c0,1.9-0.8,2.9-2.5,2.9c-0.2,0-1.3-0.2-3.4-0.6c-1-0.2-2.1-0.3-3.2-0.3c-0.9,0-2.1,0.1-3.6,0.4
				c-1.5,0.3-2.6,0.4-3.1,0.4c-0.7,0-1.3-0.3-1.8-0.8c-0.5-0.5-0.8-1.2-0.8-2c0-1.7,0.8-2.6,2.4-2.6c0.3,0,0.5,0,0.7,0
				c0.1,0,0.3,0,0.5,0c0.2,0,0.3,0,0.4,0c1.1,0,1.7-0.8,1.7-2.3c0-0.8-0.1-1.8-0.4-3l-1.3-5.3c-0.2-0.8-0.4-1.2-0.6-1.4
				c-0.2-0.2-0.6-0.3-1.2-0.3h-8.9c-1,0-1.8,0.8-2.2,2.5l-1.3,5.2c-0.3,1.4-0.5,2.4-0.5,3.3c0,0.9,0.4,1.4,1.3,1.4
				c0.3,0,0.6,0,0.7,0s0.3,0,0.5,0c0.2,0,0.4,0,0.4,0c1.6,0,2.4,0.9,2.4,2.6c0,1.9-0.8,2.8-2.4,2.8c-0.6,0-1.6-0.1-3-0.4
				c-1.4-0.3-2.4-0.4-3.2-0.4c-1.1,0-2.4,0.1-3.8,0.4c-1.5,0.3-2.5,0.4-3.1,0.4c-1.8,0-2.6-0.9-2.6-2.8c0-1.8,0.8-2.7,2.3-2.7
				c0.3,0,0.7,0.1,1.2,0.2c0.5,0.1,0.9,0.2,1.1,0.2c0.8,0,1.5-0.7,2.2-2.2C354.2,431.2,355,428.6,356.1,424.7z M372.5,415.5l-4-18.1
				l-4.7,18.1c-0.1,0.4-0.1,0.7-0.1,0.8c0,0.6,0.5,1,1.4,1h6.4c0.8,0,1.3-0.3,1.3-0.9C372.6,416.2,372.6,415.9,372.5,415.5z"/>
			<path d="M395.5,400l4.6,30.1l6-35.4c0.3-1.7,0.7-2.9,1.1-3.5c0.5-0.6,1.2-0.9,2.2-0.9c1.2,0,2.1,0.4,2.6,1.3
				c0.2,0.4,0.4,1.4,0.7,3.1l6.1,36.2l4.4-30.2c0.2-1.3,0.3-2.3,0.3-2.9c0-1.7-0.7-2.5-2.1-2.5c-0.1,0-0.2,0-0.4,0
				c-0.2,0-0.3,0.1-0.4,0.1c-0.6,0.1-1.1,0.2-1.5,0.2c-1.5,0-2.2-0.9-2.2-2.6c0-1.7,0.9-2.6,2.6-2.6c0.7,0,1.8,0.1,3.3,0.4
				c1.5,0.3,2.6,0.4,3.3,0.4c0.7,0,1.8-0.1,3.3-0.4c1.5-0.3,2.6-0.4,3.3-0.4c1.7,0,2.5,0.9,2.5,2.6c0,1.7-0.7,2.6-2.2,2.6
				c-0.1,0-0.5,0-1.1-0.1c-0.2-0.1-0.6-0.1-1-0.1c-1,0-1.6,1.2-2,3.6c0,0.3-0.1,1.3-0.4,2.9l-0.7,4.1l-5.7,31.2
				c-0.4,2.2-1.4,3.2-3.2,3.2c-2.1,0-3.3-1.3-3.6-3.8l-0.3-2.3l-5.7-33.1l-6.2,35.6c-0.3,1.4-0.5,2.3-0.7,2.6c-0.4,0.6-1.2,1-2.3,1
				c-1.2,0-2-0.2-2.4-0.6c-0.4-0.4-0.7-1.3-0.9-2.6l-6.1-32.7c-0.7-4.1-1.3-6.6-1.7-7.6c-0.4-1-1-1.5-1.8-1.5h-0.1l-1.2,0.2h-0.1
				c-1.3,0-2-0.8-2-2.5c0-0.7,0.3-1.4,0.8-1.9c0.5-0.5,1.1-0.8,1.8-0.8c0.7,0,1.7,0.1,3,0.4c1.3,0.3,2.3,0.4,3,0.4
				c0.8,0,1.9-0.1,3.5-0.4c1.5-0.3,2.6-0.4,3.4-0.4c1.7,0,2.5,0.9,2.5,2.7c0,1.7-0.8,2.5-2.4,2.5c-0.3,0-0.7,0-1.2-0.1
				c-0.5-0.1-0.9-0.1-1.2-0.1c-1.2,0-1.8,0.7-1.8,2.1v0.4L395.5,400z"/>
			<path d="M439.4,424.7l8.5-31.1c0.4-1.5,0.8-2.4,1.1-2.8c0.5-0.8,1.4-1.3,2.5-1.3c1.4,0,2.3,0.3,2.8,1c0.5,0.7,1.1,2.5,1.8,5.5
				l8.5,33.6c0.6,2.1,1.1,3.5,1.5,4.2c0.4,0.7,0.9,1,1.6,1c0.2,0,0.6-0.1,1.3-0.2c0.1,0,0.3,0,0.5-0.1c0.2,0,0.3,0,0.4,0
				c1.6,0,2.4,0.8,2.4,2.5c0,1.9-0.8,2.9-2.5,2.9c-0.2,0-1.3-0.2-3.4-0.6c-1-0.2-2.1-0.3-3.2-0.3c-0.9,0-2.1,0.1-3.6,0.4
				c-1.5,0.3-2.6,0.4-3.1,0.4c-0.7,0-1.3-0.3-1.8-0.8c-0.5-0.5-0.8-1.2-0.8-2c0-1.7,0.8-2.6,2.4-2.6c0.3,0,0.5,0,0.7,0
				c0.1,0,0.3,0,0.5,0c0.2,0,0.3,0,0.4,0c1.1,0,1.7-0.8,1.7-2.3c0-0.8-0.1-1.8-0.4-3l-1.3-5.3c-0.2-0.8-0.4-1.2-0.6-1.4
				c-0.2-0.2-0.6-0.3-1.2-0.3h-8.9c-1,0-1.8,0.8-2.2,2.5l-1.3,5.2c-0.3,1.4-0.5,2.4-0.5,3.3c0,0.9,0.4,1.4,1.3,1.4
				c0.3,0,0.6,0,0.7,0c0.1,0,0.3,0,0.5,0c0.2,0,0.4,0,0.4,0c1.6,0,2.4,0.9,2.4,2.6c0,1.9-0.8,2.8-2.4,2.8c-0.6,0-1.6-0.1-3-0.4
				c-1.4-0.3-2.5-0.4-3.2-0.4c-1.1,0-2.4,0.1-3.8,0.4c-1.5,0.3-2.5,0.4-3.1,0.4c-1.8,0-2.6-0.9-2.6-2.8c0-1.8,0.8-2.7,2.3-2.7
				c0.3,0,0.7,0.1,1.2,0.2c0.5,0.1,0.9,0.2,1.1,0.2c0.8,0,1.5-0.7,2.2-2.2C437.5,431.2,438.4,428.6,439.4,424.7z M455.8,415.5
				l-4-18.1l-4.7,18.1c-0.1,0.4-0.1,0.7-0.1,0.8c0,0.6,0.5,1,1.4,1h6.4c0.8,0,1.3-0.3,1.3-0.9C455.9,416.2,455.9,415.9,455.8,415.5z
				"/>
			<path d="M482.6,400.3l6.5,14.9l7.5-16.9c0.3-0.8,0.5-1.3,0.5-1.5c0-0.6-0.3-0.9-0.9-0.9c-0.2,0-0.6,0-1,0c-0.4,0-0.8,0-1,0
				c-1.4,0-2.1-0.9-2.1-2.8c0-1.9,0.8-2.8,2.5-2.8c0.5,0,1.4,0.1,2.7,0.4c1.3,0.3,2.3,0.4,3.1,0.4c1.2,0,2.5-0.1,3.9-0.4
				c1.2-0.2,2-0.4,2.6-0.4c1.7,0,2.6,1,2.6,2.9c0,1.8-0.8,2.7-2.4,2.7c-0.3,0-0.7-0.1-1.2-0.2c-0.6-0.1-0.9-0.1-1-0.1
				c-0.7,0-1.3,0.5-1.9,1.5l-0.7,1.3l-0.8,1.8l-9.3,19.5c-0.2,0.5-0.4,1.1-0.4,1.9c-0.1,0.4-0.1,1-0.1,1.7v7.6
				c0,2.7,0.8,4.1,2.3,4.1c0.5,0,1,0,1.4-0.1c0.7-0.1,1.2-0.1,1.4-0.1c1.5,0,2.3,0.8,2.3,2.4c0,0.8-0.2,1.4-0.7,2
				c-0.5,0.5-1.1,0.8-1.8,0.8c-0.8,0-2-0.1-3.6-0.4c-1.6-0.3-2.8-0.4-3.6-0.4c-0.9,0-2.3,0.1-4,0.4c-1.7,0.3-3,0.4-3.9,0.4
				c-1.8,0-2.7-0.9-2.7-2.8c0-1.6,0.8-2.4,2.4-2.4c0.3,0,0.8,0,1.5,0.1c0.7,0.1,1.1,0.1,1.4,0.1c1.3,0,2.1-1.5,2.4-4.6
				c0.1-0.7,0.1-2.6,0.1-5.7v-1.7c0-1.2-0.2-2.3-0.5-3.1c-0.1-0.3-0.5-1.1-1-2.2l-9.7-20.4c-0.6-1.2-1.3-1.8-2.1-1.8
				c-0.2,0-0.6,0-1.1,0.1c-0.5,0.1-0.8,0.1-1.1,0.1c-1.5,0-2.3-0.9-2.3-2.7c0-1.9,0.9-2.9,2.6-2.9c0.5,0,1.5,0.1,3,0.4
				c1.5,0.3,2.6,0.4,3.5,0.4c0.8,0,1.8-0.1,3.1-0.4c1.3-0.3,2.2-0.4,2.6-0.4c0.7,0,1.4,0.3,1.9,0.8c0.5,0.6,0.8,1.2,0.8,2.1
				c0,1.8-0.8,2.7-2.4,2.7c-0.2,0-0.6,0-1,0c-0.4,0-0.7,0-0.9,0c-0.5,0-0.7,0.3-0.7,0.9c0,0,0,0.2,0.1,0.3c0,0.2,0.2,0.7,0.6,1.5
				L482.6,400.3z"/>
		</g>
	</g>
</g>
<g id="Layer_2">
</g>
</svg>
